<?xml version="1.0" standalone="no"?>
<!DOCTYPE svg PUBLIC "-//W3C//DTD SVG 20010904//EN"
 "http://www.w3.org/TR/2001/REC-SVG-20010904/DTD/svg10.dtd">
<svg version="1.0" xmlns="http://www.w3.org/2000/svg"
 width="225.000000pt" height="225.000000pt" viewBox="0 0 225.000000 225.000000"
 preserveAspectRatio="xMidYMid meet">

<g transform="translate(0.000000,225.000000) scale(0.100000,-0.100000)"
fill="#000000" stroke="none">
<path d="M454 1841 c-49 -30 -54 -61 -54 -310 0 -195 2 -231 18 -261 28 -57
41 -60 316 -60 l248 0 34 34 34 34 0 256 0 256 -29 32 -29 33 -254 3 c-235 2
-255 1 -284 -17z m144 -95 c5 -6 20 -50 32 -98 l23 -88 30 65 c17 36 37 65 44
65 8 0 27 -27 41 -60 15 -33 29 -60 32 -60 4 0 14 33 24 73 23 91 39 117 71
117 50 0 50 -29 -4 -232 -27 -104 -45 -188 -41 -188 10 0 6 -13 66 213 43 161
61 203 80 184 3 -2 -18 -94 -46 -203 -51 -197 -67 -234 -105 -234 -26 0 -45
30 -39 58 8 33 83 321 90 345 3 9 1 17 -4 17 -5 0 -29 -76 -53 -170 -24 -93
-48 -170 -54 -170 -5 0 -21 26 -34 57 l-25 56 -30 -62 c-17 -33 -36 -61 -44
-61 -8 0 -12 -6 -9 -12 2 -7 0 -21 -5 -30 -10 -21 -61 -24 -76 -5 -15 19 -104
397 -97 415 13 35 34 -18 80 -205 26 -106 52 -193 57 -193 5 0 7 8 4 18 -29
96 -86 337 -86 361 0 45 51 63 78 27z"/>
<path d="M560 1710 c0 -8 16 -82 37 -165 l36 -150 41 85 c23 47 47 85 55 85 7
0 21 -20 31 -45 15 -39 18 -42 24 -22 5 14 2 27 -6 36 -8 7 -22 32 -32 54
l-19 41 -40 -84 c-22 -47 -43 -85 -47 -85 -3 0 -19 53 -34 118 -28 115 -45
165 -46 132z"/>
<path d="M483 1042 c-31 -5 -72 -49 -78 -86 -4 -17 -5 -136 -3 -264 l3 -234
33 -29 32 -29 259 0 259 0 32 31 31 31 -3 264 c-3 259 -3 264 -26 286 -22 22
-29 23 -270 28 -136 3 -257 4 -269 2z m135 -104 c9 -9 12 -69 12 -210 0 -125
4 -198 10 -198 6 0 10 73 10 200 l0 200 26 10 c57 22 144 3 185 -41 51 -54 50
-136 -1 -188 -17 -16 -30 -32 -30 -35 0 -3 20 -34 45 -69 25 -36 45 -70 45
-76 0 -18 -47 -43 -69 -36 -11 3 -54 59 -95 123 l-76 117 0 -113 c0 -110 -1
-113 -25 -124 -21 -9 -28 -8 -45 7 -18 16 -20 33 -23 214 l-2 196 -3 -201 c-1
-154 -5 -204 -15 -213 -8 -6 -17 -8 -20 -4 -4 3 -7 101 -7 218 0 221 3 235 45
235 12 0 26 -5 33 -12z"/>
<path d="M687 898 c-3 -10 9 -12 49 -10 46 3 56 0 79 -22 25 -25 32 -65 19
-101 -8 -19 -55 -45 -84 -45 -18 0 -13 -12 43 -92 36 -51 70 -94 77 -96 7 -3
-11 30 -39 72 -63 92 -69 106 -46 106 28 0 75 55 75 89 0 43 -20 80 -51 97
-35 17 -115 19 -122 2z"/>
<path d="M681 815 l-1 -60 50 3 c40 3 54 9 66 27 12 18 13 28 4 44 -9 17 -20
21 -60 21 -29 0 -50 5 -53 13 -3 6 -6 -15 -6 -48z"/>
<path d="M1247 1014 c-15 -14 -29 -40 -32 -58 -4 -17 -5 -136 -3 -264 l3 -234
33 -29 32 -29 259 0 259 0 31 29 31 29 0 262 0 262 -29 29 -29 29 -265 0 -264
0 -26 -26z m103 -274 c0 -122 4 -201 10 -205 7 -4 10 61 10 189 0 164 3 197
16 210 20 20 48 20 64 1 9 -11 16 -13 24 -5 18 18 116 12 163 -11 150 -72 164
-288 25 -384 -38 -26 -54 -30 -123 -34 -53 -2 -84 1 -94 9 -12 10 -15 47 -15
206 0 120 -4 194 -10 194 -6 0 -11 -77 -12 -196 -3 -184 -4 -197 -23 -209 -13
-9 -28 -10 -42 -4 -23 8 -23 10 -23 222 0 118 3 217 6 220 19 19 24 -22 24
-203z"/>
<path d="M1505 900 c-4 -6 8 -10 30 -10 20 0 53 -9 75 -20 56 -29 83 -72 88
-142 4 -51 1 -64 -23 -99 -34 -53 -98 -82 -166 -77 -27 1 -49 0 -49 -4 0 -14
130 -8 158 6 118 62 138 216 39 303 -49 43 -137 68 -152 43z"/>
<path d="M1460 733 l0 -149 63 6 c34 4 73 13 86 21 26 16 61 78 61 110 0 63
-67 129 -131 129 -19 0 -45 7 -57 16 l-22 15 0 -148z"/>
</g>
</svg>
